<svg xmlns="http://www.w3.org/2000/svg" width="50" height="50" viewBox="0 0 50 50">
  <g id="Group_933" data-name="Group 933" transform="translate(-202 -576)">
    <g id="Rectangle_15" data-name="Rectangle 15" transform="translate(202 576)" fill="none" stroke="#707070" stroke-width="1">
      <rect width="50" height="50" rx="10" stroke="none"/>
      <rect x="0.5" y="0.5" width="49" height="49" rx="9.5" fill="none"/>
    </g>
    <g id="Dribbble-Light-Preview" transform="translate(217.825 591.825)">
      <g id="icons" transform="translate(0)">
        <path id="github-_142_" data-name="github-[#142]" d="M93.175,7399a9.292,9.292,0,0,1,9.175,9.4,9.4,9.4,0,0,1-6.269,8.927c-.465.092-.63-.2-.63-.449,0-.312.011-1.322.011-2.587a2.275,2.275,0,0,0-.623-1.735c2.043-.237,4.19-1.027,4.19-4.642a3.658,3.658,0,0,0-.945-2.522,3.471,3.471,0,0,0-.09-2.5s-.769-.248-2.52.963a8.6,8.6,0,0,0-4.595,0c-1.753-1.211-2.524-.963-2.524-.963a3.485,3.485,0,0,0-.089,2.5,3.671,3.671,0,0,0-.945,2.522c0,3.605,2.142,4.413,4.18,4.651a1.989,1.989,0,0,0-.583,1.257,1.929,1.929,0,0,1-2.67-.789,1.927,1.927,0,0,0-1.407-.963s-.895-.019-.062.568a2.5,2.5,0,0,1,1.018,1.376s.539,1.68,3.091,1.11c0,.789.013,1.532.013,1.753,0,.247-.169.541-.627.449A9.387,9.387,0,0,1,84,7408.405a9.292,9.292,0,0,1,9.175-9.4" transform="translate(-84 -7399.001)" fill="#c1c1c1" fill-rule="evenodd"/>
      </g>
    </g>
  </g>
</svg>
