<svg xmlns="http://www.w3.org/2000/svg" width="51" height="50" viewBox="0 0 51 50">
  <g id="Group_934" data-name="Group 934" transform="translate(-261 -576)">
    <g id="Rectangle_16" data-name="Rectangle 16" transform="translate(261 576)" fill="none" stroke="#707070" stroke-width="1">
      <rect width="51" height="50" rx="10" stroke="none"/>
      <rect x="0.5" y="0.5" width="50" height="49" rx="9.5" fill="none"/>
    </g>
    <path id="discord-svgrepo-com" d="M22.625,6.2a19.645,19.645,0,0,0-4.9-1.539,11.33,11.33,0,0,0-.625,1.3,17.951,17.951,0,0,0-5.429,0,13.944,13.944,0,0,0-.638-1.3A19.645,19.645,0,0,0,6.127,6.2,20.532,20.532,0,0,0,2.6,19.933,19.636,19.636,0,0,0,8.616,23.01,15.136,15.136,0,0,0,9.9,20.9a11.685,11.685,0,0,1-2.026-.988c.175-.125.338-.263.5-.388a13.872,13.872,0,0,0,12.02,0c.163.138.325.263.5.388a13.2,13.2,0,0,1-2.026.988,15.137,15.137,0,0,0,1.288,2.114,19.5,19.5,0,0,0,6.016-3.077A20.461,20.461,0,0,0,22.65,6.2ZM10.43,17.181a2.3,2.3,0,0,1-2.139-2.427,2.285,2.285,0,0,1,2.139-2.427,2.276,2.276,0,0,1,2.139,2.427A2.292,2.292,0,0,1,10.43,17.181Zm7.893,0a2.3,2.3,0,0,1-2.139-2.427,2.285,2.285,0,0,1,2.139-2.427,2.276,2.276,0,0,1,2.139,2.427A2.292,2.292,0,0,1,18.323,17.181Z" transform="translate(271.901 587.165)" fill="#c1c1c1"/>
  </g>
</svg>
